<?xml version="1.0" standalone="no"?><!DOCTYPE svg PUBLIC "-//W3C//DTD SVG 1.1//EN" "http://www.w3.org/Graphics/SVG/1.1/DTD/svg11.dtd"><svg t="1753665628847" class="icon" viewBox="0 0 1024 1024" version="1.1" xmlns="http://www.w3.org/2000/svg" p-id="7822" xmlns:xlink="http://www.w3.org/1999/xlink" width="16" height="16"><path d="M877.714286 73.142857a146.285714 146.285714 0 0 1 146.285714 146.285714v585.142858a146.285714 146.285714 0 0 1-146.285714 146.285714H146.285714a146.285714 146.285714 0 0 1-146.285714-146.285714V219.428571a146.285714 146.285714 0 0 1 146.285714-146.285714h731.428572z m0 73.142857H146.285714a73.142857 73.142857 0 0 0-72.630857 64.585143L73.142857 219.428571v585.142858a73.142857 73.142857 0 0 0 64.585143 72.630857L146.285714 877.714286h731.428572a73.142857 73.142857 0 0 0 72.630857-64.585143L950.857143 804.571429V219.428571a73.142857 73.142857 0 0 0-64.585143-72.630857L877.714286 146.285714zM621.714286 694.857143a36.571429 36.571429 0 0 1 0 73.142857h-438.857143a36.571429 36.571429 0 1 1 0-73.142857h438.857143z m226.669714-365.714286a36.571429 36.571429 0 0 1 36.571429 36.571429v146.285714a36.571429 36.571429 0 0 1-29.988572 35.986286l-6.582857 0.585143h-109.787429v41.398857a36.571429 36.571429 0 0 1-56.832 30.427428L564.882286 542.427429a36.571429 36.571429 0 0 1 0-60.854858L681.691429 403.602286a36.571429 36.571429 0 0 1 56.905142 30.427428l-0.073142 41.398857h73.142857V365.714286a36.571429 36.571429 0 0 1 36.571428-36.571429zM365.714286 475.428571a36.571429 36.571429 0 0 1 0 73.142858H182.857143a36.571429 36.571429 0 0 1 0-73.142858H365.714286z m256-219.428571a36.571429 36.571429 0 0 1 0 73.142857h-438.857143a36.571429 36.571429 0 0 1 0-73.142857h438.857143z" fill="#ffffff" p-id="7823"></path></svg>