<?xml version="1.0" standalone="no"?><!DOCTYPE svg PUBLIC "-//W3C//DTD SVG 1.1//EN" "http://www.w3.org/Graphics/SVG/1.1/DTD/svg11.dtd"><svg t="1753878014302" class="icon" viewBox="0 0 1024 1024" version="1.1" xmlns="http://www.w3.org/2000/svg" p-id="2457" xmlns:xlink="http://www.w3.org/1999/xlink" width="16" height="16"><path d="M652.16072 691.61501l139.684392 132.438163a28.207077 28.207077 0 0 0 38.359988 0 23.171561 23.171561 0 0 0 1.801322-34.143254l-1.801322-1.760384-95.551985-91.826522h193.642197a26.937963 26.937963 0 0 0 30.827183-22.22996 26.11918 26.11918 0 0 0-23.580953-28.780225 28.452712 28.452712 0 0 0-6.795899 0H734.85781l99.318387-91.826522a29.803704 29.803704 0 0 0-5.526785-35.82176 28.207077 28.207077 0 0 0-38.359987 0l-137.964949 127.893916a26.897024 26.897024 0 0 0-7.655621 38.359988c2.006019 3.029497 4.544246 5.608664 7.491865 7.69656z" fill="#ffffff" p-id="2458"></path><path d="M512.35351 1023.549669a30.786244 30.786244 0 0 1-30.213096-31.195635 31.072818 31.072818 0 0 1 14.369643-26.364815l155.650663-96.943916a30.090278 30.090278 0 0 1 42.57672 6.386508 31.318453 31.318453 0 0 1-10.930754 46.179365l-155.650663 97.189551a29.721826 29.721826 0 0 1-15.802513 4.748942z m0-518.6172a29.926521 29.926521 0 0 1-14.164948-3.39795L80.076985 275.796025a31.277513 31.277513 0 0 1 0.45033-54.776587L497.82011 3.591592a29.599008 29.599008 0 0 1 27.961442 0L942.992468 229.330086a31.277513 31.277513 0 0 1 12.813955 41.880754 30.704365 30.704365 0 0 1-12.813955 12.773016l-417.251855 217.427846a30.0084 30.0084 0 0 1-13.387103 3.39795v0.122817zM160.194909 250.331872l352.567992 190.12143 351.70827-185.454367-352.527053-188.811377-351.749209 184.144314zM512.35351 1023.549669a30.090278 30.090278 0 0 1-15.843453-4.667063L79.258202 757.8955a31.031879 31.031879 0 0 1-15.434061-26.323875V248.571488a30.745304 30.745304 0 0 1 44.787434-27.55205l417.129038 225.738494a31.031879 31.031879 0 0 1 16.252844 27.183598v518.6172a30.663426 30.663426 0 0 1-30.49967 30.95h0.859723z m-387.652848-309.377185l356.334395 223.241206v-444.59921l-356.334395-192.823415v414.181419z m249.933534-159.867395a29.558069 29.558069 0 0 1-14.205886-2.128836l-182.711443-100.259988A31.195635 31.195635 0 0 1 180.132277 394.765206a30.254035 30.254035 0 0 1 23.335317 1.023479l2.661045 1.064418 182.752383 99.19557a31.277513 31.277513 0 0 1 1.146296 53.67123 30.376852 30.376852 0 0 1-15.352183 4.462368l-0.040939 0.122818z" fill="#ffffff" p-id="2459"></path></svg>